<svg xmlns="http://www.w3.org/2000/svg" fill="none" viewBox="0 0 229 41" height="41" width="229">
<path fill="black" d="M72.5359 30.4221C71.3941 30.4221 70.3566 30.1722 69.4533 29.7179C69.5167 30.3985 69.4757 31.1119 69.3195 31.847C68.3158 36.5688 62.9365 40.3966 57.3046 40.3966C51.6726 40.3966 47.9206 36.5688 48.9243 31.847C49.0805 31.1119 49.3428 30.3985 49.6956 29.7179C48.5992 30.1722 47.4554 30.4221 46.3136 30.4221C41.4862 30.4221 38.522 25.9564 39.693 20.4476C40.864 14.9388 45.7266 10.4731 50.554 10.4731C51.6958 10.4731 52.7334 10.7229 53.6366 11.1773C53.5732 10.4966 53.6142 9.78325 53.7705 9.04818C54.7741 4.32638 60.1534 0.498615 65.7853 0.498615C71.4173 0.498615 75.1693 4.32639 74.1656 9.04818C74.0094 9.78325 73.7471 10.4966 73.3943 11.1773C74.4907 10.7229 75.6345 10.4731 76.7763 10.4731C81.6037 10.4731 84.5679 14.9388 83.3969 20.4476C82.226 25.9564 77.3633 30.4221 72.5359 30.4221ZM57.2946 16.4537C58.64 17.1813 60.2931 17.5977 62.1507 17.5977C64.0083 17.5977 65.8385 17.1813 67.4932 16.4537C66.7644 17.6766 66.2172 19.0274 65.9153 20.4476C65.6135 21.8677 65.5864 23.2186 65.7953 24.4415C64.4499 23.7139 62.7968 23.2974 60.9392 23.2974C59.0816 23.2974 57.2514 23.7139 55.5968 24.4415C56.3255 23.2186 56.8727 21.8677 57.1746 20.4476C57.4764 19.0274 57.5035 17.6766 57.2946 16.4537ZM99.9809 40.0074V15.9401H106.642V40.0074H121.76V19.328C121.76 9.13863 113.5 0.878521 103.31 0.878521C93.121 0.878521 84.8609 9.13864 84.8609 19.328V40.0074H99.9809ZM205.298 0.882484C194.493 0.882484 185.733 9.64173 185.733 20.4468C185.733 31.2519 194.493 40.0111 205.298 40.0111H228.446V16.0379H213.281V0.882484H205.298ZM205.298 16.1203H213.208V24.7733H205.298C202.908 24.7733 200.971 22.8363 200.971 20.4468C200.971 18.0574 202.908 16.1203 205.298 16.1203ZM124.545 8.55311C124.52 10.1228 125.006 11.6512 125.929 12.9095C126.304 13.4205 126.501 14.041 126.493 14.6785C126.484 15.3161 126.269 15.9366 125.88 16.4475C124.836 17.828 124.308 19.5241 124.387 21.2387C124.467 22.9533 125.149 24.5771 126.314 25.8254C126.597 26.1212 126.753 26.5172 126.747 26.9294C126.741 27.3416 126.575 27.7376 126.283 28.0334C125.484 28.8621 124.887 29.8639 124.543 30.9582C124.198 32.0525 124.115 33.2086 124.3 34.3336C124.618 35.7549 125.321 37.0572 126.331 38.0998C127.342 39.1425 128.623 39.886 130.036 40.2502C131.113 40.4678 134.676 40.4443 135.75 40.1812C136.823 39.9181 137.828 39.4221 138.693 38.7286C139.557 38.0351 140.26 37.1614 140.75 36.1701C141.241 35.1789 141.507 34.0946 141.529 32.9951L141.558 30.9405C141.563 30.5715 141.641 30.2061 141.787 29.8652C141.934 29.5243 142.146 29.2148 142.411 28.9542C142.677 28.6937 142.99 28.4872 143.334 28.3468C143.678 28.2063 144.046 28.1346 144.415 28.1357H151.142C152.64 28.1456 154.111 27.6972 155.358 26.8509C156.604 26.0047 157.566 24.8012 158.114 23.4025C158.662 22.0038 158.77 20.4771 158.423 19.0278C158.075 17.5786 157.29 16.2764 156.172 15.2966C156.091 15.2171 156.026 15.1218 155.983 15.0163C155.939 14.9108 155.918 14.7974 155.919 14.6828C155.921 14.5682 155.945 14.4548 155.992 14.3493C156.038 14.2438 156.105 14.1485 156.189 14.069C157.333 13.0879 158.153 11.7852 158.539 10.336C158.926 8.88672 158.86 7.3603 158.351 5.9617C157.842 4.5631 156.914 3.35929 155.692 2.51193C154.47 1.66456 153.012 1.21421 151.514 1.22137H132.019C131.053 1.21913 130.092 1.40705 129.194 1.77439C128.295 2.14174 127.475 2.68129 126.781 3.36222C126.086 4.04315 125.532 4.8521 125.148 5.74279C124.765 6.63348 124.56 7.58845 124.545 8.55311ZM178.516 0.498615C172.444 0.498615 166.247 5.2531 164.676 11.118C163.629 15.0248 164.898 18.4388 167.657 20.2831C162.238 20.7763 156.952 25.0801 155.549 30.3162C154.057 35.8833 157.52 40.3964 163.284 40.3964C169.047 40.3964 174.929 35.8833 176.421 30.3162C177.398 26.6685 176.248 23.4733 173.718 21.7036C179.493 21.2687 185.17 16.6955 186.665 11.118C188.236 5.2531 184.588 0.498615 178.516 0.498615ZM7.41575 9.18619H-0.000854492V31.7185L7.38715 31.7185V39.6866H38.4266V24.3978L21.7987 24.3978C19.6252 24.3978 17.8633 22.63 17.8633 20.4494C17.8633 18.2688 19.6252 16.5011 21.7987 16.5011L38.4266 16.5011V1.21225L7.41575 1.21225V9.18619Z" clip-rule="evenodd" fill-rule="evenodd"></path>
</svg>
