<svg xmlns="http://www.w3.org/2000/svg" fill="none" viewBox="0 0 122 25" height="25" width="122">
<g id="Property 1=Patagonia">
<path fill="black" d="M23.7017 11.8929H22.9538C21.6229 11.8929 20.5417 12.89 20.5417 14.2209C20.5417 15.3021 20.8742 16.5489 22.2886 16.5489C23.5361 16.5489 23.7852 15.5518 23.7852 14.5528V12.0579C23.7845 12.0579 23.868 11.8929 23.7017 11.8929ZM61.5976 24.0343H58.9782C57.0982 23.81 55.4699 23.092 55.4699 21.3724C55.4699 20.1256 56.883 19.2114 58.0483 19.0445C58.0483 19.0445 58.3809 18.9617 58.0483 18.9617C57.6322 18.8775 55.3871 18.7119 54.6385 18.8775C54.6385 18.8775 54.4722 18.8775 54.3887 18.7119C54.3059 18.545 53.8899 17.381 53.8064 17.2982C53.7236 17.1312 53.8892 17.0484 53.8892 17.0484C55.5527 16.7986 57.0493 15.9672 57.7144 15.7175C58.1304 15.6347 57.7144 15.5518 57.7144 15.5518C55.3864 15.1352 53.0571 13.5558 53.0571 10.8111C53.0571 6.90244 56.3007 5.15613 59.3773 5.15613C60.791 5.15613 61.6224 5.40588 62.371 5.48869C62.371 5.48869 62.4538 5.57216 62.538 5.40588C62.538 5.15612 62.7864 4.49099 62.7864 4.49099C63.1203 3.49328 63.6178 3.07724 65.1157 3.07724C65.4483 3.07724 65.7808 3.07724 66.0299 3.16071C66.0299 3.16071 66.1969 3.07724 66.1969 3.327C66.1128 3.40981 65.6133 5.40588 65.6133 5.48869C65.5304 5.73844 65.4476 5.57216 65.4476 5.57216C65.1979 5.40588 65.1151 5.32241 64.5334 5.40588C64.1995 5.40588 64.0339 5.65498 64.0339 5.9882C64.0339 6.57052 66.6944 7.40195 66.6944 10.562C66.6944 14.8032 62.7858 15.7175 59.3766 16.5495C59.3766 16.5495 59.044 16.6324 59.3766 16.6324C61.6218 16.8821 66.279 17.4638 66.279 20.3754C66.281 22.8266 63.5461 23.7715 61.5976 24.0343ZM29.0241 17.2982H29.6893C29.8556 17.2982 29.8556 17.4638 29.8556 17.4638V18.7947C29.8556 19.0445 29.6065 18.9617 29.6065 18.9617H24.2841C24.2841 18.9617 24.2006 18.9617 24.2006 18.7947C24.1178 18.4621 23.9515 18.1296 23.9515 17.8805C23.8687 17.5479 23.7017 17.8805 23.7017 17.8805C22.6206 18.7119 21.3731 19.377 19.8765 19.377C17.3816 19.377 15.469 17.7977 15.469 15.2186C15.469 12.0586 17.4651 10.3129 19.96 10.3129L23.7852 10.1466V9.98098V9.56494C23.7852 8.48377 23.2029 7.98492 21.9554 7.98492C20.3754 7.98492 19.6274 8.56724 18.8788 9.48148C18.8788 9.48148 18.8788 9.56429 18.7125 9.56429C18.5463 9.48148 17.216 8.98197 17.216 8.98197C17.216 8.98197 17.0497 8.98197 17.1332 8.81569C17.2166 8.6494 18.8795 4.65793 18.8795 4.65793C18.8795 4.65793 18.8795 4.49164 18.9623 4.57511C19.2114 4.65793 20.2098 4.99114 20.4589 4.99114C20.6251 5.07396 20.5417 5.24025 20.5417 5.24025L20.3754 5.57282C20.2926 5.90539 20.4582 5.7391 20.4582 5.7391C21.5394 5.32306 22.6206 5.15678 23.7017 5.15678C26.8618 5.15678 28.9413 6.48771 28.9413 9.73058V17.0491C28.9407 17.0484 28.9407 17.2982 29.0241 17.2982ZM29.3567 6.15383C31.5184 5.57151 33.3482 4.15777 34.2631 2.1617C34.2631 2.1617 34.2631 2.07888 34.4294 2.07888C34.5956 2.07888 35.6768 2.32864 35.8431 2.32864C36.0094 2.41146 35.9259 2.49492 35.9259 2.49492C35.8431 3.16071 35.7596 3.90866 35.7596 4.49099V5.48869C35.7596 5.65498 35.9259 5.57216 35.9259 5.57216H38.1711C38.3374 5.57216 38.2539 5.73845 38.2539 5.73845C38.2539 5.73845 37.9213 7.40194 37.9213 7.56823C37.8385 7.73451 37.7551 7.73451 37.7551 7.73451H35.9253C35.7583 7.73451 35.759 7.81798 35.759 7.81798V15.5525C35.759 16.4667 36.5076 16.6324 36.9236 16.6324C37.339 16.6324 37.4225 16.6324 37.7551 16.4667C37.7551 16.4667 37.9213 16.2998 37.9213 16.4667C38.0042 16.6324 38.4202 17.7135 38.5037 17.8805C38.5865 17.9633 38.4202 18.0461 38.4202 18.0461C36.6739 19.2942 36.5076 19.377 34.179 19.377C31.6012 19.377 30.6863 18.1302 30.6863 15.8022V7.81733C30.6863 7.81733 30.6863 7.73386 30.5201 7.73386H29.3561C29.3561 7.73386 29.2726 7.73386 29.2726 7.56758V6.32012C29.2732 6.2373 29.3567 6.15383 29.3567 6.15383ZM67.2781 12.2248C67.2781 7.90014 70.6879 5.15613 75.1795 5.15613C79.6692 5.15613 83.1625 7.90014 83.1625 12.2248C83.1625 16.7158 79.6692 19.3764 75.1795 19.3764C70.6872 19.3764 67.2781 16.7158 67.2781 12.2248ZM72.4348 10.3122C72.4348 12.3083 73.2663 17.2982 76.0937 17.2982C77.5903 17.2982 78.0057 15.7175 78.0057 14.2209C78.0057 12.2248 77.1756 7.23566 74.264 7.23566C72.4348 7.23501 72.4348 9.31389 72.4348 10.3122ZM98.9634 18.961H91.9775C91.9775 18.961 91.8947 18.961 91.8947 18.8769V17.4631C91.8947 17.2975 92.0603 17.2975 92.0603 17.2975H92.8917C92.9759 17.2975 92.9759 17.2147 92.9759 17.2147V9.64711C92.9759 8.81569 92.2272 8.48247 91.478 8.48247C90.5638 8.48247 89.8986 8.8985 89.2328 9.48017C89.2328 9.48017 89.15 9.56299 89.15 9.64646V17.2147C89.15 17.2147 89.15 17.2975 89.2328 17.2975H90.1484C90.1484 17.2975 90.2312 17.2975 90.2312 17.4631V18.8769C90.2312 18.961 90.1484 18.961 90.1484 18.961H83.1625C83.1625 18.961 83.0797 19.0438 83.0797 18.7941V17.4631C83.0797 17.2975 83.1625 17.2975 83.1625 17.2975H83.9098C84.0767 17.2975 83.9939 17.2147 83.9939 17.2147V8.31618C83.9939 8.31618 84.0767 8.1499 83.9098 8.1499L83.1625 8.39965C83.1625 8.39965 83.0797 8.48247 83.0797 8.31684V6.90309C83.0797 6.73681 83.1625 6.82027 83.1625 6.82027L89.0672 5.24025C89.0672 5.24025 89.2328 5.15743 89.2328 5.32306V7.23631C89.2328 7.48541 89.3169 7.31913 89.3169 7.31913C90.7307 6.23796 92.1444 5.15678 94.0564 5.15678C97.6325 5.15678 98.132 7.56823 98.132 9.06544V17.216C98.132 17.216 98.0492 17.2988 98.2148 17.2988H98.9634C98.9634 17.2988 99.0462 17.2988 99.0462 17.4644V18.7954C99.0462 19.0438 98.9634 18.961 98.9634 18.961ZM106.032 5.23894L100.127 6.81897C100.127 6.81897 100.045 6.81897 100.045 6.98526V8.31618C100.045 8.48247 100.21 8.399 100.21 8.399C100.21 8.399 100.627 8.31618 100.959 8.23271C101.126 8.23271 101.042 8.399 101.042 8.48182V17.2147C101.042 17.2147 101.126 17.2975 100.959 17.2975H100.127C100.127 17.2975 99.9605 17.2975 99.9605 17.4631V18.8769C99.9605 19.0438 100.127 18.961 100.127 18.961H107.03C107.196 18.961 107.113 18.7941 107.113 18.7941V17.4631C107.113 17.2975 106.946 17.2975 106.946 17.2975H106.281C106.114 17.2975 106.198 17.2147 106.198 17.2147V5.32176C106.198 5.15547 106.032 5.23894 106.032 5.23894ZM103.953 1.08118C105.117 1.08118 106.447 1.41375 106.447 2.82749C106.447 4.49099 104.203 5.15613 102.789 5.15613C101.624 5.15613 100.876 4.5738 100.876 3.40981C100.876 2.07888 102.705 1.08118 103.953 1.08118ZM46.8205 11.8929H46.1547C44.741 11.8929 43.7433 12.89 43.7433 14.2209C43.7433 15.3021 44.0758 16.5489 45.4068 16.5489C46.7377 16.5489 46.9868 15.5518 46.9868 14.5528V12.0579C46.9868 12.0579 46.9868 11.8929 46.8205 11.8929ZM52.2264 17.2982H52.8087C53.0578 17.2982 53.0578 17.4638 53.0578 17.4638V18.7947C53.0578 19.0445 52.8087 18.9617 52.8087 18.9617H47.4863C47.4863 18.9617 47.4028 18.9617 47.32 18.7947C47.2372 18.4621 47.1537 18.1296 47.1537 17.8805C47.0709 17.5479 46.9046 17.8805 46.9046 17.8805C45.74 18.7119 44.576 19.377 43.0788 19.377C40.501 19.377 38.5884 17.7977 38.5884 15.2186C38.5884 12.0586 40.6673 10.2294 43.1622 10.2294L46.9046 10.146C46.9046 10.146 46.9874 10.146 46.9874 9.98033V9.56429C46.9874 8.48312 46.4051 7.98427 45.1576 7.98427C43.5776 7.98427 42.829 8.56659 42.0804 9.48083C42.0804 9.48083 41.9976 9.56364 41.9141 9.48083C41.7478 9.48083 40.3341 8.98197 40.3341 8.98197C40.3341 8.98197 40.2513 8.98197 40.3341 8.81569C40.4169 8.6494 41.9976 4.65793 41.9976 4.65793C41.9976 4.65793 41.9976 4.49164 42.1639 4.57511C42.3302 4.65793 43.4113 4.99114 43.5776 4.99114C43.7439 5.07396 43.6604 5.24025 43.6604 5.24025C43.6604 5.24025 43.6604 5.40653 43.5776 5.57282C43.4113 5.90539 43.6604 5.7391 43.6604 5.7391C44.7416 5.32306 45.8228 5.15678 46.904 5.15678C50.064 5.15678 52.1436 6.48771 52.1436 9.73058V17.0491C52.1429 17.0484 52.0594 17.2982 52.2264 17.2982ZM57.7144 8.73222C57.7144 10.2288 58.5458 14.3037 60.6254 14.3037C61.7072 14.3037 62.1219 13.8042 62.1219 12.4746C62.1219 10.9774 61.207 6.90244 59.1282 6.90244C58.1305 6.90244 57.7144 7.40129 57.7144 8.73222ZM59.8768 19.6261C59.6277 19.8759 59.4614 20.7901 59.4614 21.3724C59.4614 22.0382 59.7939 22.7862 60.6254 22.7862C61.2912 22.7862 61.7072 22.4536 61.7072 21.7891C61.7072 20.541 60.9579 20.1256 60.0437 19.544C60.0437 19.5433 59.9602 19.5433 59.8768 19.6261ZM115.346 11.8929H114.681C113.267 11.8929 112.269 12.89 112.269 14.2209C112.269 15.3021 112.601 16.5489 113.932 16.5489C115.263 16.5489 115.513 15.5518 115.513 14.5528V12.0579C115.513 12.0579 115.513 11.8929 115.346 11.8929ZM120.751 17.2982H121.417C121.583 17.2982 121.583 17.4638 121.583 17.4638V18.7947C121.583 19.0445 121.333 18.9617 121.333 18.9617H116.01C116.01 18.9617 115.928 18.9617 115.845 18.7947C115.762 18.4621 115.678 18.1296 115.678 17.8805C115.595 17.5479 115.428 17.8805 115.428 17.8805C114.264 18.7119 113.1 19.377 111.604 19.377C109.026 19.377 107.113 17.7977 107.113 15.2186C107.113 12.0586 109.192 10.2294 111.686 10.2294L115.428 10.146C115.428 10.146 115.512 10.146 115.512 9.98033V9.56429C115.512 8.48312 114.93 7.98427 113.682 7.98427C112.102 7.98427 111.354 8.56659 110.605 9.48083C110.605 9.48083 110.522 9.56364 110.439 9.48083C110.272 9.48083 108.941 8.98197 108.941 8.98197C108.941 8.98197 108.775 8.98197 108.858 8.81569C108.941 8.6494 110.522 4.65793 110.522 4.65793C110.522 4.65793 110.522 4.49164 110.689 4.57511C110.854 4.65793 111.936 4.99114 112.102 4.99114C112.269 5.07265 112.269 5.23894 112.269 5.23894L112.103 5.57151C111.936 5.90408 112.186 5.7378 112.186 5.7378C113.267 5.32176 114.348 5.15548 115.429 5.15548C118.59 5.15548 120.668 6.4864 120.668 9.72928V17.0478C120.668 17.0484 120.668 17.2982 120.751 17.2982ZM6.15448 8.39965V15.1358C6.15448 16.2998 6.57052 17.2982 7.90079 17.2982C9.56429 17.2982 10.3129 16.2998 10.3129 13.2226C10.3129 8.31683 7.81798 8.06708 6.98656 8.06708L6.32077 8.1499C6.32077 8.1499 6.15448 8.23337 6.15448 8.39965ZM6.2373 6.40358C7.48476 5.65498 8.39965 5.15613 9.64711 5.15613C12.8906 5.15613 15.4684 7.81733 15.4684 11.726C15.4684 15.5518 13.0569 19.3764 8.8985 19.3764C8.06708 19.3764 6.98591 19.2936 6.2373 18.8769C6.2373 18.8769 6.15448 18.8769 6.15448 18.961V21.3718C6.15448 21.3718 6.15448 21.5387 6.32077 21.5387H7.81733C7.81733 21.5387 7.98361 21.5387 7.98361 21.7057V23.0353C7.98361 23.1194 7.81733 23.2022 7.81733 23.2022H0.249753C0.249753 23.2022 0 23.2022 0 23.0353V23.0223V23.0092V22.9955V22.9818V22.9668V22.9505V22.9342V22.9179V22.9003V22.8814V22.8625V22.8423V22.8221V22.8018V22.7803V22.7601V22.7373V22.7145V22.6916V22.6688V22.6447V22.6219V22.5964V22.5736V22.5482V22.524V22.4986V22.4745V22.4491V22.4236V22.3982V22.3741V22.3486V22.3232V22.2965V22.2723V22.2469V22.2215V22.1973V22.1732V22.1491V22.125V22.1008V22.0767V22.0539V22.0311V22.0082V21.988V21.9652V21.945V21.9235V21.9033V21.8843V21.8654V21.8465V21.8289V21.8113V21.795V21.78V21.765V21.75V21.737V21.7239V21.7122C0 21.5453 0.166284 21.5453 0.166284 21.5453H0.831423C0.997707 21.5453 0.997707 21.3783 0.997707 21.3783V8.3227C0.997707 8.15642 0.831423 8.23989 0.831423 8.23989L0.166284 8.40617C0.166284 8.40617 0 8.40617 0 8.23989V8.23076V8.22098V8.20989V8.19816V8.18511V8.17142V8.15642V8.14077V8.12316V8.10621V8.0873V8.06839V8.04817V8.02731V8.00578V7.98427V7.96144V7.93862V7.91449V7.89037V7.86493V7.84015V7.81472V7.78864V7.76255V7.73582V7.70908V7.68235V7.65496V7.62822V7.60084V7.5741V7.54671V7.51932V7.49194V7.4652V7.43781V7.41108V7.38434V7.35825V7.33217V7.30674V7.2813V7.25653V7.23175V7.20827V7.1848V7.16262V7.1398V7.11828V7.09741V7.07785V7.05829V7.04003V7.02243V7.00612V6.98982V6.97548V6.96178V6.94874V6.93635V6.92591V6.91678V6.90831C0 6.74202 0.166284 6.74202 0.166284 6.74202L5.98755 5.24546C5.98755 5.24546 6.15383 5.16265 6.15383 5.32828V6.32599C6.15448 6.4864 6.2373 6.40358 6.2373 6.40358ZM118.34 1.82978C118.34 0.831422 119.172 0 120.17 0C121.168 0 122 0.831422 122 1.82978C122 2.91096 121.169 3.74238 120.17 3.74238C119.172 3.74238 118.34 2.91096 118.34 1.82978ZM121.75 1.82978C121.75 0.998359 121.084 0.249755 120.169 0.249755C119.254 0.249755 118.505 0.998359 118.505 1.82978C118.505 2.74467 119.254 3.49263 120.169 3.49263C121.084 3.49263 121.75 2.74467 121.75 1.82978ZM121.084 2.91096H120.751L120.169 1.91325H119.754V2.91096H119.504V0.832075H120.335C120.501 0.832075 120.751 0.832074 120.835 0.915542C121 0.998359 121.083 1.24812 121.083 1.4144C121.083 1.74762 120.835 1.91391 120.418 1.91391L121.084 2.91096ZM120.086 1.74631C120.419 1.74631 120.835 1.82913 120.835 1.41309C120.835 1.08052 120.585 0.997711 120.335 0.997711H119.753V1.74631H120.086Z" clip-rule="evenodd" fill-rule="evenodd" id="Wordmark"></path>
</g>
</svg>
